<?xml version="1.0" encoding="iso-8859-1"?>
<!-- Generator: Adobe Illustrator 21.0.2, SVG Export Plug-In . SVG Version: 6.00 Build 0)  -->
<svg version="1.1" id="Layer_1" xmlns="http://www.w3.org/2000/svg" xmlns:xlink="http://www.w3.org/1999/xlink" x="0px" y="0px"
	 viewBox="0 0 100.355 100.352" style="enable-background:new 0 0 100.355 100.352;" xml:space="preserve">
<path d="M94.357,47.571c0-4.021-3.273-7.293-7.298-7.293c-4.023,0-7.297,3.271-7.297,7.293c0,1.607,0.529,3.09,1.413,4.297h-8.67
	V12.94c0-0.829-0.672-1.5-1.5-1.5h-41.75c-0.828,0-1.5,0.671-1.5,1.5v38.928h-8.926c0.883-1.207,1.412-2.69,1.412-4.297
	c0-4.021-3.271-7.293-7.293-7.293c-4.025,0-7.301,3.271-7.301,7.293c0,3.51,2.493,6.447,5.801,7.141V87.06
	c0,0.829,0.672,1.5,1.5,1.5H87.06c0.828,0,1.5-0.671,1.5-1.5V54.712C91.866,54.018,94.357,51.08,94.357,47.571z M85.559,54.868
	v10.474H14.447V54.868H85.559z M51.504,51.868V41.395h18v10.473H51.504z M30.754,27.913h17.75v10.482h-17.75V27.913z M51.504,27.913
	h18v10.482h-18V27.913z M69.504,24.913h-18V14.44h18V24.913z M48.504,14.44v10.473h-17.75V14.44H48.504z M30.754,41.395h17.75
	v10.473h-17.75V41.395z M8.646,47.571c0-2.367,1.93-4.293,4.301-4.293c2.367,0,4.293,1.926,4.293,4.293
	c0,2.369-1.926,4.297-4.293,4.297C10.576,51.868,8.646,49.94,8.646,47.571z M14.447,85.559V68.342h71.112v17.217H14.447z
	 M87.059,51.868c-2.369,0-4.297-1.928-4.297-4.297c0-2.367,1.928-4.293,4.297-4.293c2.37,0,4.298,1.926,4.298,4.293
	C91.357,49.94,89.429,51.868,87.059,51.868z"/>
</svg>
