<?xml version="1.0" encoding="UTF-8" standalone="no"?> <svg xmlns="http://www.w3.org/2000/svg" viewBox="0 0 37.6 47.18"><defs><style>.cls-1{fill:none;stroke:#333;stroke-linecap:round;stroke-linejoin:round;stroke-width:2px;}</style></defs><title>Asset 7</title><g id="Layer_2" data-name="Layer 2"><g id="Layer_2-2" data-name="Layer 2"><rect class="cls-1" x="1.07" y="24" width="31.75" height="5.52" rx="1"/><path class="cls-1" d="M3.26,29.52,6.65,45.36a1,1,0,0,0,1,.82H26.21a1,1,0,0,0,1-.82l3.39-15.84"/><path class="cls-1" d="M4.37,16.81A6.3,6.3,0,0,0,13.28,7.9C11.16,5.78,3.54,4.77,1.47,4.53A.43.43,0,0,0,1,5C1.24,7.07,2.25,14.69,4.37,16.81Z"/><line class="cls-1" x1="6.48" y1="10.15" x2="16.53" y2="20.2"/><path class="cls-1" d="M20.09,5.53a8.47,8.47,0,0,0,12,12c2.85-2.85,4.21-13.1,4.53-15.88A.57.57,0,0,0,36,1C33.19,1.32,22.94,2.68,20.09,5.53Z"/><line class="cls-1" x1="29.04" y1="8.37" x2="16.53" y2="20.2"/><line class="cls-1" x1="16.44" y1="22.55" x2="16.44" y2="19.55"/></g></g></svg>