<?xml version="1.0" encoding="iso-8859-1"?>
<!-- Generator: Adobe Illustrator 21.1.0, SVG Export Plug-In . SVG Version: 6.00 Build 0)  -->
<svg version="1.1" id="Layer_1" xmlns="http://www.w3.org/2000/svg" xmlns:xlink="http://www.w3.org/1999/xlink" x="0px" y="0px"
	 viewBox="0 0 100.353 100.353" style="enable-background:new 0 0 100.353 100.353;" xml:space="preserve">
<path d="M96.352,53.661H21.79V13.697c0-4.6,3.742-8.342,8.342-8.342c4.193,0,7.665,3.109,8.251,7.14
	C32.144,13.225,27.3,18.151,27.3,24.113c0,0.829,0.671,1.5,1.5,1.5h22.362c0.828,0,1.5-0.671,1.5-1.5
	c0-6.016-4.931-10.982-11.252-11.641C40.797,6.792,35.974,2.355,30.132,2.355c-6.254,0-11.342,5.088-11.342,11.342v39.964H3.382
	c-0.829,0-1.5,0.672-1.5,1.5s0.671,1.5,1.5,1.5h7.285l8.168,32.669c0.167,0.667,0.767,1.136,1.455,1.136h6.948v6.953
	c0,0.828,0.671,1.5,1.5,1.5s1.5-0.672,1.5-1.5v-6.953h39.257v6.953c0,0.828,0.672,1.5,1.5,1.5s1.5-0.672,1.5-1.5v-6.953h6.95
	c0.688,0,1.288-0.469,1.455-1.136l8.17-32.669h7.281c0.828,0,1.5-0.672,1.5-1.5S97.18,53.661,96.352,53.661z M49.519,22.613H30.443
	c0.792-4.097,4.767-7.221,9.537-7.221C44.751,15.392,48.727,18.516,49.519,22.613z M78.274,87.466H21.461l-7.702-30.805h72.219
	L78.274,87.466z"/>
</svg>
