<?xml version="1.0" encoding="UTF-8" standalone="no"?> <svg id="Layer_1" data-name="Layer 1" xmlns="http://www.w3.org/2000/svg" viewBox="0 0 25 25"><title>House</title><path id="House" d="M24.82,10,21,6.84V1.5a.5.5,0,0,0-.5-.5h-3a.5.5,0,0,0-.5.5V3.56L12.82.12a.5.5,0,0,0-.63,0L.18,10a.5.5,0,0,0-.08.69l1.47,1.91a.5.5,0,0,0,.71.08L3,12.08V23.75A1.27,1.27,0,0,0,4.29,25H20.71A1.27,1.27,0,0,0,22,23.75V12.08l.71.58a.5.5,0,0,0,.32.11h.06a.5.5,0,0,0,.34-.19l1.47-1.91A.5.5,0,0,0,24.82,10ZM18,2h2V6L18,4.38ZM8,24V17h3v7Zm13-.25a.27.27,0,0,1-.29.25H12V16.5a.5.5,0,0,0-.5-.5h-4a.5.5,0,0,0-.5.5V24H4.29A.27.27,0,0,1,4,23.75V11.26l8.5-7,8.5,7Zm1.94-12.19L12.82,3.27a.5.5,0,0,0-.63,0L2.06,11.57l-.86-1.12L12.5,1.15l11.31,9.29ZM15.5,20h3a.5.5,0,0,0,.5-.5v-5a.5.5,0,0,0-.5-.5h-3a.5.5,0,0,0-.5.5v5A.5.5,0,0,0,15.5,20Zm.5-5h2v4H16Z" fill="#0e1d25"/></svg>