<?xml version="1.0" encoding="UTF-8" standalone="no"?> <svg id="Layer_1" data-name="Layer 1" xmlns="http://www.w3.org/2000/svg" viewBox="0 0 128 128"><defs><style>.cls-1{fill:#fff;}</style></defs><title>a</title><path class="cls-1" d="M106.58248,18.67715A62.18831,62.18831,0,0,0,1.93547,60.03859a61.70661,61.70661,0,0,0,16.742,46.54357,62.43431,62.43431,0,0,0,45.323,19.60672,3.336,3.336,0,0,0,0-6.672A55.51807,55.51807,0,0,1,60.45157,8.59416a55.52222,55.52222,0,0,1,59.06559,55.406,54.92693,54.92693,0,0,1-6.01939,25.17219,11.9927,11.9927,0,0,1-15.77551,5.10177l-1.769-.83767c1.00287-1.00816,1.93339-1.9714,2.61278-2.7002a2.1727,2.1727,0,0,0-.30922-3.23231L81.66209,76.84846a2.47073,2.47073,0,0,0-3.51561.59958c-1.3311,1.96515-4.36767,6.26821-4.36767,6.26821s-7.10343,3.825-19.67079-8.74253c-.19018-.19018-.34262-.36718-.52533-.55492-.18773-.18285-.36474-.33515-.55492-.52533-12.5675-12.5675-8.74266-19.67079-8.74266-19.67079S48.58831,51.186,50.55346,49.855a2.47084,2.47084,0,0,0,.59944-3.51574L40.49762,29.74468a2.17273,2.17273,0,0,0-3.23231-.30936c-2.46794,2.30071-7.5617,7.373-8.341,9.00017A17.31791,17.31791,0,0,0,28.20378,51.24,73.99183,73.99183,0,0,0,46.1976,80.45027c.23076.23076.46478.4318.69623.65727.22547.23144.42664.4656.65727.69636A73.99538,73.99538,0,0,0,76.7615,99.79772a17.31863,17.31863,0,0,0,12.8045-.72066,7.3097,7.3097,0,0,0,1.10848-.7588l4.19174,1.985a18.7027,18.7027,0,0,0,24.576-8.10114,61.5348,61.5348,0,0,0,6.747-28.202A62.43431,62.43431,0,0,0,106.58248,18.67715Z"/></svg>