<?xml version="1.0" encoding="iso-8859-1"?>
<!-- Generator: Adobe Illustrator 21.1.0, SVG Export Plug-In . SVG Version: 6.00 Build 0)  -->
<svg version="1.1" id="Layer_1" xmlns="http://www.w3.org/2000/svg" xmlns:xlink="http://www.w3.org/1999/xlink" x="0px" y="0px"
	 viewBox="0 0 100.353 100.353" style="enable-background:new 0 0 100.353 100.353;" xml:space="preserve">
<g>
	<path d="M50.004,36.36c-11.776,0-21.357,9.581-21.357,21.357s9.581,21.357,21.357,21.357s21.357-9.581,21.357-21.357
		S61.78,36.36,50.004,36.36z M50.004,76.074c-10.122,0-18.357-8.235-18.357-18.357S39.882,39.36,50.004,39.36
		s18.357,8.235,18.357,18.357S60.126,76.074,50.004,76.074z"/>
	<path d="M82.665,25.531c0-0.007-0.002-0.013-0.002-0.019V11.672c0-0.829-0.672-1.5-1.5-1.5H18.842c-0.829,0-1.5,0.671-1.5,1.5
		v76.656c0,0.828,0.671,1.5,1.5,1.5h62.321c0.828,0,1.5-0.672,1.5-1.5V25.55C82.663,25.544,82.665,25.538,82.665,25.531z
		 M79.663,13.172v10.859H20.342V13.172H79.663z M20.342,86.828V27.031h59.321v59.797H20.342z"/>
	<path d="M25.773,20.1h13.845c0.829,0,1.5-0.671,1.5-1.5s-0.671-1.5-1.5-1.5H25.773c-0.829,0-1.5,0.671-1.5,1.5
		S24.944,20.1,25.773,20.1z"/>
	<path d="M50.004,44.61c-7.226,0-13.104,5.879-13.104,13.107s5.878,13.107,13.104,13.107s13.104-5.88,13.104-13.107
		S57.229,44.61,50.004,44.61z M50.004,67.824c-5.571,0-10.104-4.534-10.104-10.107S44.433,47.61,50.004,47.61
		s10.104,4.534,10.104,10.107S55.575,67.824,50.004,67.824z"/>
</g>
</svg>
